<svg xmlns="http://www.w3.org/2000/svg" width="605" height="682" viewBox="0 0 605 682">
<g>
<path d="M 0.00 0.00 L 605.00 0.00 L 605.00 682.00 L 0.00 682.00 ZM 129.00 105.81 L 129.00 582.00 L 241.75 581.98 C308.51,581.97 358.31,581.56 363.83,580.98 C397.69,577.42 421.40,566.24 445.59,542.44 C458.11,530.12 458.45,529.10 457.72,506.23 C457.35,494.81 456.58,486.37 455.54,482.50 C453.35,474.31 447.90,463.00 441.80,454.00 C436.09,445.58 418.35,427.00 416.02,427.00 C414.73,427.00 414.55,428.77 414.85,438.94 C415.57,463.07 409.42,479.88 394.57,494.34 C387.77,500.98 378.60,506.00 367.84,508.98 C360.82,510.92 357.75,511.00 287.77,511.00 L 215.00 511.00 L 215.00 377.00 L 274.94 377.00 C310.09,377.00 335.12,376.62 335.45,376.09 C336.05,375.11 336.04,375.10 317.00,363.97 C279.50,342.05 261.60,329.32 245.83,313.38 L 236.55 304.00 L 215.00 304.00 L 215.00 178.00 L 221.00 178.00 C228.16,178.00 228.19,178.10 224.50,189.41 C216.79,213.03 217.15,240.52 225.44,262.00 C233.42,282.65 243.91,297.00 263.19,313.64 C279.97,328.12 293.74,337.07 363.00,378.48 C408.44,405.64 427.61,419.12 438.69,431.68 C453.90,448.93 459.92,458.70 465.69,475.49 C468.07,482.39 471.00,501.31 471.00,509.71 C471.00,512.07 471.42,514.00 471.93,514.00 C473.39,514.00 483.56,492.41 486.39,483.28 C490.82,469.05 492.31,456.50 491.71,438.50 C491.09,419.79 488.60,408.34 482.14,394.55 C472.70,374.42 459.49,358.62 439.50,343.54 C429.45,335.97 410.66,323.61 402.00,318.89 C400.08,317.84 395.80,315.28 392.50,313.21 C389.20,311.14 381.33,306.57 375.00,303.06 C350.44,289.45 323.42,272.58 309.50,262.19 C306.20,259.72 298.63,252.94 292.67,247.10 C275.58,230.37 267.08,216.03 261.26,194.07 C257.83,181.16 257.67,161.60 260.89,149.56 C264.45,136.24 270.46,122.56 276.94,113.00 C278.62,110.53 279.99,108.05 280.00,107.50 C280.00,106.85 253.94,106.38 204.50,106.16 ZM 441.50 329.61 C442.60,330.32 443.77,330.92 444.10,330.95 C445.27,331.05 454.76,319.41 459.14,312.50 C476.37,285.32 483.15,258.78 480.86,227.53 C479.83,213.55 477.58,204.03 471.93,189.76 C462.13,165.05 447.57,145.81 428.24,132.04 C417.56,124.42 395.48,113.34 389.15,112.41 C386.59,112.03 383.38,111.30 382.00,110.78 C374.52,107.96 361.57,107.03 329.30,107.02 L 296.10 107.00 L 293.31 110.75 C291.77,112.81 290.28,114.72 289.99,115.00 C289.70,115.28 287.37,118.65 284.81,122.50 C278.19,132.46 273.16,148.09 271.75,163.08 C271.15,169.46 270.95,175.42 271.30,176.33 C271.88,177.85 275.68,178.00 313.72,178.04 C361.29,178.08 363.26,178.30 377.42,185.33 C387.50,190.34 394.70,196.79 401.19,206.65 C406.93,215.36 409.11,223.32 409.72,237.82 C410.21,249.34 410.07,250.70 407.47,258.68 C404.02,269.27 396.75,280.63 388.61,288.13 L 382.50 293.76 L 387.00 296.45 C389.48,297.93 396.90,302.31 403.50,306.19 C413.27,311.94 430.00,322.25 441.50,329.61 Z" fill="rgb(33,33,33)"/>
<path d="M 129.00 343.91 L 129.00 105.81 L 204.50 106.16 C253.94,106.38 280.00,106.85 280.00,107.50 C279.99,108.05 278.62,110.53 276.94,113.00 C270.46,122.56 264.45,136.24 260.89,149.56 C257.67,161.60 257.83,181.16 261.26,194.07 C267.08,216.03 275.58,230.37 292.67,247.10 C298.63,252.94 306.20,259.72 309.50,262.19 C323.42,272.58 350.44,289.45 375.00,303.06 C381.33,306.57 389.20,311.14 392.50,313.21 C395.80,315.28 400.08,317.84 402.00,318.89 C410.66,323.61 429.45,335.97 439.50,343.54 C459.49,358.62 472.70,374.42 482.14,394.55 C488.60,408.34 491.09,419.79 491.71,438.50 C492.31,456.50 490.82,469.05 486.39,483.28 C483.56,492.41 473.39,514.00 471.93,514.00 C471.42,514.00 471.00,512.07 471.00,509.71 C471.00,501.31 468.07,482.39 465.69,475.49 C459.92,458.70 453.90,448.93 438.69,431.68 C427.61,419.12 408.44,405.64 363.00,378.48 C293.74,337.07 279.97,328.12 263.19,313.64 C243.91,297.00 233.42,282.65 225.44,262.00 C217.15,240.52 216.79,213.03 224.50,189.41 C228.19,178.10 228.16,178.00 221.00,178.00 L 215.00 178.00 L 215.00 241.00 L 215.00 304.00 L 225.77 304.00 L 236.55 304.00 L 245.83 313.38 C261.60,329.32 279.50,342.05 317.00,363.97 C336.04,375.10 336.05,375.11 335.45,376.09 C335.12,376.62 310.09,377.00 274.94,377.00 L 215.00 377.00 L 215.00 444.00 L 215.00 511.00 L 287.77 511.00 C357.75,511.00 360.82,510.92 367.84,508.98 C378.60,506.00 387.77,500.98 394.57,494.34 C409.42,479.88 415.57,463.07 414.85,438.94 C414.55,428.77 414.73,427.00 416.02,427.00 C418.35,427.00 436.09,445.58 441.80,454.00 C447.90,463.00 453.35,474.31 455.54,482.50 C456.58,486.37 457.35,494.81 457.72,506.23 C458.45,529.10 458.11,530.12 445.59,542.44 C421.40,566.24 397.69,577.42 363.83,580.98 C358.31,581.56 308.51,581.97 241.75,581.98 L 129.00 582.00 L 129.00 343.91 ZM 441.50 329.61 C430.00,322.25 413.27,311.94 403.50,306.19 C396.90,302.31 389.48,297.93 387.00,296.45 L 382.50 293.76 L 388.61 288.13 C396.75,280.63 404.02,269.27 407.47,258.68 C410.07,250.70 410.21,249.34 409.72,237.82 C409.11,223.32 406.93,215.36 401.19,206.65 C394.70,196.79 387.50,190.34 377.42,185.33 C363.26,178.30 361.29,178.08 313.72,178.04 C275.68,178.00 271.88,177.85 271.30,176.33 C270.95,175.42 271.15,169.46 271.75,163.08 C273.16,148.09 278.19,132.46 284.81,122.50 C287.37,118.65 289.70,115.28 289.99,115.00 C290.28,114.72 291.77,112.81 293.31,110.75 L 296.10 107.00 L 329.30 107.02 C361.57,107.03 374.52,107.96 382.00,110.78 C383.38,111.30 386.59,112.03 389.15,112.41 C395.48,113.34 417.56,124.42 428.24,132.04 C447.57,145.81 462.13,165.05 471.93,189.76 C477.58,204.03 479.83,213.55 480.86,227.53 C483.15,258.78 476.37,285.32 459.14,312.50 C454.76,319.41 445.27,331.05 444.10,330.95 C443.77,330.92 442.60,330.32 441.50,329.61 Z" fill="rgb(253,253,253)"/>
</g>
</svg>