<svg xmlns="http://www.w3.org/2000/svg" width="817" height="849" viewBox="0 0 817 849">
<g>
<path d="M 0.00 0.00 L 817.00 0.00 L 817.00 849.00 L 0.00 849.00 ZM 278.68 616.35 C279.06,616.72 292.67,616.91 308.93,616.76 L 338.50 616.50 L 338.50 220.50 L 278.00 219.97 L 278.00 417.82 C278.00,526.64 278.31,615.97 278.68,616.35 ZM 562.64 559.99 C563.29,562.00 566.14,558.31 569.60,551.00 C571.03,547.97 572.83,544.19 573.60,542.60 C574.37,541.00 575.00,539.08 575.00,538.33 C575.00,537.58 575.39,536.19 575.88,535.24 C581.30,524.51 582.53,492.18 578.16,475.50 C575.56,465.56 568.21,450.88 561.03,441.26 C547.55,423.20 529.89,410.59 471.00,376.98 C426.26,351.44 405.04,332.93 394.23,310.00 C381.73,283.48 384.80,250.58 402.13,225.32 C403.71,223.02 405.00,220.88 405.00,220.57 C405.00,220.26 392.17,220.00 376.49,220.00 L 347.97 220.00 L 348.24 250.25 L 348.50 280.50 L 353.37 280.81 L 358.24 281.12 L 357.65 284.31 C357.32,286.06 356.15,291.33 355.05,296.00 C353.51,302.56 353.05,308.07 353.03,320.10 C353.01,328.68 353.40,337.01 353.90,338.60 C354.39,340.20 355.58,344.20 356.54,347.50 C360.53,361.26 371.20,377.34 384.81,390.13 C396.77,401.38 417.73,415.70 449.79,434.54 C458.18,439.47 468.77,445.75 473.34,448.50 C477.91,451.25 483.87,454.80 486.58,456.38 C536.94,485.85 559.40,513.58 561.58,548.98 C561.90,554.22 562.38,559.17 562.64,559.99 ZM 535.50 405.64 C537.70,406.93 539.80,407.98 540.16,407.99 C541.09,408.01 549.71,398.28 552.98,393.52 C554.50,391.31 557.63,385.67 559.93,381.00 C562.24,376.33 564.55,371.72 565.06,370.76 C565.58,369.81 566.00,368.21 566.00,367.21 C566.00,366.22 566.41,364.97 566.90,364.45 C567.40,363.93 568.63,359.90 569.65,355.50 C571.11,349.19 571.47,343.80 571.38,330.00 C571.25,310.74 570.04,304.16 563.80,288.50 C551.01,256.44 523.76,232.61 489.13,223.21 C479.89,220.70 478.23,220.58 448.31,220.23 L 417.13 219.87 L 412.58 225.67 C402.23,238.86 397.18,252.37 396.30,269.19 L 395.70 280.89 L 434.10 281.20 C471.90,281.51 472.59,281.55 478.50,283.91 C486.15,286.96 494.51,292.61 499.42,298.05 C504.56,303.73 509.56,314.89 510.83,323.50 C511.95,331.13 511.05,343.17 508.92,349.00 C506.41,355.85 500.56,364.58 494.66,370.30 C488.77,376.01 488.70,376.14 490.58,377.97 C491.64,379.00 497.45,382.74 503.50,386.28 C509.55,389.82 518.33,395.10 523.00,398.01 C527.67,400.93 533.30,404.36 535.50,405.64 ZM 348.00 557.00 L 348.00 617.00 L 411.92 617.00 C453.74,617.00 477.69,616.63 481.17,615.92 C506.82,610.72 524.78,601.40 541.65,584.53 C548.91,577.27 551.08,574.43 552.04,570.93 C553.56,565.38 552.63,541.80 550.59,534.23 C548.66,527.06 544.04,517.42 538.90,509.86 C534.77,503.78 517.60,486.00 515.85,486.00 C515.38,486.00 515.28,490.40 515.63,495.78 C517.64,526.47 499.70,551.81 473.00,555.97 C469.16,556.57 442.30,556.99 407.25,556.99 ZM 348.00 385.00 L 348.00 447.02 L 399.75 446.76 C431.23,446.60 451.50,446.13 451.50,445.56 C451.50,444.79 429.58,431.00 428.36,431.00 C427.43,431.00 399.65,412.79 392.50,407.49 C388.10,404.23 380.63,397.84 375.90,393.28 L 367.30 385.00 Z" fill="rgb(0,0,0)"/>
<path d="M 278.68 616.35 C278.31,615.97 278.00,526.64 278.00,417.82 L 278.00 219.97 L 308.25 220.24 L 338.50 220.50 L 338.50 418.50 L 338.50 616.50 L 308.93 616.76 C292.67,616.91 279.06,616.72 278.68,616.35 ZM 348.00 587.00 L 348.00 557.00 L 407.25 556.99 C442.30,556.99 469.16,556.57 473.00,555.97 C499.70,551.81 517.64,526.47 515.63,495.78 C515.28,490.40 515.38,486.00 515.85,486.00 C517.60,486.00 534.77,503.78 538.90,509.86 C544.04,517.42 548.66,527.06 550.59,534.23 C552.63,541.80 553.56,565.38 552.04,570.93 C551.08,574.43 548.91,577.27 541.65,584.53 C524.78,601.40 506.82,610.72 481.17,615.92 C477.69,616.63 453.74,617.00 411.92,617.00 L 348.00 617.00 L 348.00 587.00 ZM 562.64 559.99 C562.38,559.17 561.90,554.22 561.58,548.98 C559.40,513.58 536.94,485.85 486.58,456.38 C483.87,454.80 477.91,451.25 473.34,448.50 C468.77,445.75 458.18,439.47 449.79,434.54 C417.73,415.70 396.77,401.38 384.81,390.13 C371.20,377.34 360.53,361.26 356.54,347.50 C355.58,344.20 354.39,340.20 353.90,338.60 C353.40,337.01 353.01,328.68 353.03,320.10 C353.05,308.07 353.51,302.56 355.05,296.00 C356.15,291.33 357.32,286.06 357.65,284.31 L 358.24 281.12 L 353.37 280.81 L 348.50 280.50 L 348.24 250.25 L 347.97 220.00 L 376.49 220.00 C392.17,220.00 405.00,220.26 405.00,220.57 C405.00,220.88 403.71,223.02 402.13,225.32 C384.80,250.58 381.73,283.48 394.23,310.00 C405.04,332.93 426.26,351.44 471.00,376.98 C529.89,410.59 547.55,423.20 561.03,441.26 C568.21,450.88 575.56,465.56 578.16,475.50 C582.53,492.18 581.30,524.51 575.88,535.24 C575.39,536.19 575.00,537.58 575.00,538.33 C575.00,539.08 574.37,541.00 573.60,542.60 C572.83,544.19 571.03,547.97 569.60,551.00 C566.14,558.31 563.29,562.00 562.64,559.99 ZM 348.00 416.01 L 348.00 385.00 L 357.65 385.00 L 367.30 385.00 L 375.90 393.28 C380.63,397.84 388.10,404.23 392.50,407.49 C399.65,412.79 427.43,431.00 428.36,431.00 C429.58,431.00 451.50,444.79 451.50,445.56 C451.50,446.13 431.23,446.60 399.75,446.76 L 348.00 447.02 L 348.00 416.01 ZM 535.50 405.64 C533.30,404.36 527.67,400.93 523.00,398.01 C518.33,395.10 509.55,389.82 503.50,386.28 C497.45,382.74 491.64,379.00 490.58,377.97 C488.70,376.14 488.77,376.01 494.66,370.30 C500.56,364.58 506.41,355.85 508.92,349.00 C511.05,343.17 511.95,331.13 510.83,323.50 C509.56,314.89 504.56,303.73 499.42,298.05 C494.51,292.61 486.15,286.96 478.50,283.91 C472.59,281.55 471.90,281.51 434.10,281.20 L 395.70 280.89 L 396.30 269.19 C397.18,252.37 402.23,238.86 412.58,225.67 L 417.13 219.87 L 448.31 220.23 C478.23,220.58 479.89,220.70 489.13,223.21 C523.76,232.61 551.01,256.44 563.80,288.50 C570.04,304.16 571.25,310.74 571.38,330.00 C571.47,343.80 571.11,349.19 569.65,355.50 C568.63,359.90 567.40,363.93 566.90,364.45 C566.41,364.97 566.00,366.22 566.00,367.21 C566.00,368.21 565.58,369.81 565.06,370.76 C564.55,371.72 562.24,376.33 559.93,381.00 C557.63,385.67 554.50,391.31 552.98,393.52 C549.71,398.28 541.09,408.01 540.16,407.99 C539.80,407.98 537.70,406.93 535.50,405.64 Z" fill="rgb(253,253,253)"/>
</g>
</svg>